<svg width="17" height="16" viewBox="0 0 17 16" fill="none" xmlns="http://www.w3.org/2000/svg">
<path fill-rule="evenodd" clip-rule="evenodd" d="M12.2017 2.66676C11.769 2.66676 11.3539 2.83868 11.0479 3.14468L3.16676 11.0258V13.3334H5.47437L13.3555 5.45229C13.6615 5.14628 13.8334 4.73125 13.8334 4.29849C13.8334 3.86573 13.6615 3.45069 13.3555 3.14468C13.0495 2.83868 12.6345 2.66676 12.2017 2.66676ZM3.01104 11.1815L3.01055 11.182L2.63343 10.8049L3.01055 11.182C3.01072 11.1819 3.01088 11.1817 3.01104 11.1815ZM12.2017 1.6001C11.4861 1.6001 10.7997 1.88439 10.2937 2.39044L2.25631 10.4278C2.15629 10.5278 2.1001 10.6635 2.1001 10.8049V13.8668C2.1001 14.1613 2.33888 14.4001 2.63343 14.4001H5.69528C5.83673 14.4001 5.97238 14.3439 6.0724 14.2439L14.1098 6.20653C14.6158 5.70049 14.9001 5.01414 14.9001 4.29849C14.9001 3.58283 14.6158 2.89648 14.1098 2.39044C13.6037 1.88439 12.9174 1.6001 12.2017 1.6001Z" fill="#2E2E2E"/>
</svg>
