<svg width="17" height="16" viewBox="0 0 17 16" fill="none" xmlns="http://www.w3.org/2000/svg">
<path fill-rule="evenodd" clip-rule="evenodd" d="M8.76676 1.6001C10.0021 1.6001 11.0195 2.53344 11.1521 3.73343H13.8334H14.9001C15.1946 3.73343 15.4334 3.97221 15.4334 4.26676C15.4334 4.56132 15.1946 4.8001 14.9001 4.8001H13.8334V12.8001C13.8334 13.6838 13.1171 14.4001 12.2334 14.4001H5.3001C4.41644 14.4001 3.7001 13.6838 3.7001 12.8001V4.8001H2.63343C2.33888 4.8001 2.1001 4.56132 2.1001 4.26676C2.1001 3.97221 2.33888 3.73343 2.63343 3.73343H3.7001H6.38141C6.51406 2.53344 7.53142 1.6001 8.76676 1.6001ZM7.4601 3.73343H10.0734C9.94989 3.12483 9.41182 2.66676 8.76676 2.66676C8.12171 2.66676 7.58364 3.12483 7.4601 3.73343ZM11.1668 4.8001L12.7668 4.8001V12.8001C12.7668 13.0946 12.528 13.3334 12.2334 13.3334H5.3001C5.00555 13.3334 4.76676 13.0946 4.76676 12.8001V4.8001L6.36676 4.8001H11.1668ZM7.43343 6.4001C7.72798 6.4001 7.96676 6.63888 7.96676 6.93343V10.6668C7.96676 10.9613 7.72798 11.2001 7.43343 11.2001C7.13888 11.2001 6.9001 10.9613 6.9001 10.6668V6.93343C6.9001 6.63888 7.13888 6.4001 7.43343 6.4001ZM10.6334 6.93343C10.6334 6.63888 10.3946 6.4001 10.1001 6.4001C9.80555 6.4001 9.56676 6.63888 9.56676 6.93343V10.6668C9.56676 10.9613 9.80555 11.2001 10.1001 11.2001C10.3946 11.2001 10.6334 10.9613 10.6334 10.6668V6.93343Z" fill="#323232"/>
</svg>
