<svg width="20" height="20" viewBox="0 0 20 20" fill="none" xmlns="http://www.w3.org/2000/svg">
<path d="M11.8193 3.5V5.83301C11.8193 6.20887 12.1241 6.51367 12.5 6.51367C12.8759 6.51367 13.1807 6.20887 13.1807 5.83301V3.5H15.833C16.4518 3.5 17.0458 3.74601 17.4834 4.18359C17.9208 4.62109 18.1669 5.21436 18.167 5.83301V8.33301C18.167 8.7012 17.8682 9 17.5 9C17.2348 9 16.9805 9.10543 16.793 9.29297C16.6054 9.48051 16.5 9.73478 16.5 10C16.5 10.2652 16.6054 10.5195 16.793 10.707C16.9805 10.8946 17.2348 11 17.5 11C17.8682 11 18.167 11.2988 18.167 11.667V14.167C18.1669 14.7856 17.9208 15.3789 17.4834 15.8164C17.0458 16.254 16.4518 16.5 15.833 16.5H13.1807V14.167C13.1807 13.7911 12.8759 13.4863 12.5 13.4863C12.1241 13.4863 11.8193 13.7911 11.8193 14.167V16.5H4.16699C3.54815 16.5 2.95419 16.254 2.5166 15.8164C2.0792 15.3789 1.83309 14.7856 1.83301 14.167V11.667L1.83691 11.5986C1.87114 11.2625 2.15488 11 2.5 11C2.76522 11 3.01949 10.8946 3.20703 10.707C3.37109 10.543 3.47236 10.3275 3.49512 10.0986L3.5 10C3.5 9.73478 3.39457 9.48051 3.20703 9.29297C3.01949 9.10543 2.76522 9 2.5 9C2.13181 9 1.83301 8.7012 1.83301 8.33301V5.83301C1.83309 5.21436 2.0792 4.62109 2.5166 4.18359C2.95419 3.74601 3.54815 3.5 4.16699 3.5H11.8193ZM12.5 8.48633C12.1241 8.48633 11.8193 8.79113 11.8193 9.16699V10.833C11.8193 11.2089 12.1241 11.5137 12.5 11.5137C12.8759 11.5137 13.1807 11.2089 13.1807 10.833V9.16699C13.1807 8.79113 12.8759 8.48633 12.5 8.48633Z" fill="white"/>
</svg>
